<?xml version="1.0" encoding="UTF-8" standalone="no"?>
<!DOCTYPE svg PUBLIC "-//W3C//DTD SVG 1.1//EN"
 "http://www.w3.org/Graphics/SVG/1.1/DTD/svg11.dtd">
<!-- Generated by graphviz version 2.26.3 (20100126.1600)
 -->
<!-- Title: _anonymous_0 Pages: 1 -->
<svg width="462pt" height="1246pt"
 viewBox="0.00 0.00 462.00 1246.00" xmlns="http://www.w3.org/2000/svg" xmlns:xlink="http://www.w3.org/1999/xlink">
<g id="graph1" class="graph" transform="scale(1 1) rotate(0) translate(4 1242)">
<title>_anonymous_0</title>
<polygon fill="white" stroke="white" points="-4,5 -4,-1242 459,-1242 459,5 -4,5"/>
<!-- 1 -->
<g id="node1" class="node"><title>1</title>
<ellipse fill="none" stroke="black" cx="227" cy="-1219" rx="39.0967" ry="18.3848"/>
<text text-anchor="middle" x="227" y="-1215.4" font-family="Times Roman,serif" font-size="14.00">ID [1]</text>
</g>
<!-- 3748714355 -->
<g id="node2" class="node"><title>3748714355</title>
<ellipse fill="yellow" stroke="black" cx="227" cy="-1107" rx="96.8736" ry="56.5685"/>
<text text-anchor="middle" x="227" y="-1130.4" font-family="Times Roman,serif" font-size="14.00">ID [3748714355]</text>
<text text-anchor="middle" x="227" y="-1112.4" font-family="Times Roman,serif" font-size="14.00">T = (0, 0, 0)</text>
<text text-anchor="middle" x="227" y="-1094.4" font-family="Times Roman,serif" font-size="14.00">Updates: 1</text>
<text text-anchor="middle" x="227" y="-1076.4" font-family="Times Roman,serif" font-size="14.00">(type = FIXED)</text>
</g>
<!-- 1&#45;&gt;3748714355 -->
<g id="edge2" class="edge"><title>1&#45;&gt;3748714355</title>
<path fill="none" stroke="black" d="M227,-1200.25C227,-1192.67 227,-1183.43 227,-1173.74"/>
<polygon fill="black" stroke="black" points="230.5,-1173.53 227,-1163.53 223.5,-1173.53 230.5,-1173.53"/>
</g>
<!-- 4103282463 -->
<g id="node3" class="node"><title>4103282463</title>
<ellipse fill="yellow" stroke="black" cx="227" cy="-957" rx="109.101" ry="56.5685"/>
<text text-anchor="middle" x="227" y="-980.4" font-family="Times Roman,serif" font-size="14.00">ID [4103282463]</text>
<text text-anchor="middle" x="227" y="-962.4" font-family="Times Roman,serif" font-size="14.00">T = (0, 0, 0)</text>
<text text-anchor="middle" x="227" y="-944.4" font-family="Times Roman,serif" font-size="14.00">Updates: 1</text>
<text text-anchor="middle" x="227" y="-926.4" font-family="Times Roman,serif" font-size="14.00">(type = REVOLUTE)</text>
</g>
<!-- 3748714355&#45;&gt;4103282463 -->
<g id="edge4" class="edge"><title>3748714355&#45;&gt;4103282463</title>
<path fill="none" stroke="black" d="M227,-1050.29C227,-1041.7 227,-1032.78 227,-1024"/>
<polygon fill="black" stroke="black" points="230.5,-1023.79 227,-1013.79 223.5,-1023.79 230.5,-1023.79"/>
</g>
<!-- 354849071 -->
<g id="node4" class="node"><title>354849071</title>
<ellipse fill="yellow" stroke="black" cx="227" cy="-807" rx="109.101" ry="56.5685"/>
<text text-anchor="middle" x="227" y="-830.4" font-family="Times Roman,serif" font-size="14.00">ID [354849071]</text>
<text text-anchor="middle" x="227" y="-812.4" font-family="Times Roman,serif" font-size="14.00">T = (0, 0, 0)</text>
<text text-anchor="middle" x="227" y="-794.4" font-family="Times Roman,serif" font-size="14.00">Updates: 1</text>
<text text-anchor="middle" x="227" y="-776.4" font-family="Times Roman,serif" font-size="14.00">(type = REVOLUTE)</text>
</g>
<!-- 4103282463&#45;&gt;354849071 -->
<g id="edge6" class="edge"><title>4103282463&#45;&gt;354849071</title>
<path fill="none" stroke="black" d="M227,-900.291C227,-891.705 227,-882.777 227,-873.998"/>
<polygon fill="black" stroke="black" points="230.5,-873.789 227,-863.789 223.5,-873.789 230.5,-873.789"/>
</g>
<!-- 2271468390 -->
<g id="node5" class="node"><title>2271468390</title>
<ellipse fill="yellow" stroke="black" cx="227" cy="-657" rx="109.101" ry="56.5685"/>
<text text-anchor="middle" x="227" y="-680.4" font-family="Times Roman,serif" font-size="14.00">ID [2271468390]</text>
<text text-anchor="middle" x="227" y="-662.4" font-family="Times Roman,serif" font-size="14.00">T = (0, 0, 0)</text>
<text text-anchor="middle" x="227" y="-644.4" font-family="Times Roman,serif" font-size="14.00">Updates: 1</text>
<text text-anchor="middle" x="227" y="-626.4" font-family="Times Roman,serif" font-size="14.00">(type = REVOLUTE)</text>
</g>
<!-- 354849071&#45;&gt;2271468390 -->
<g id="edge8" class="edge"><title>354849071&#45;&gt;2271468390</title>
<path fill="none" stroke="black" d="M227,-750.291C227,-741.705 227,-732.777 227,-723.998"/>
<polygon fill="black" stroke="black" points="230.5,-723.789 227,-713.789 223.5,-723.789 230.5,-723.789"/>
</g>
<!-- 837076458 -->
<g id="node6" class="node"><title>837076458</title>
<ellipse fill="yellow" stroke="black" cx="227" cy="-507" rx="109.101" ry="56.5685"/>
<text text-anchor="middle" x="227" y="-530.4" font-family="Times Roman,serif" font-size="14.00">ID [837076458]</text>
<text text-anchor="middle" x="227" y="-512.4" font-family="Times Roman,serif" font-size="14.00">T = (0, 0, 0)</text>
<text text-anchor="middle" x="227" y="-494.4" font-family="Times Roman,serif" font-size="14.00">Updates: 1</text>
<text text-anchor="middle" x="227" y="-476.4" font-family="Times Roman,serif" font-size="14.00">(type = REVOLUTE)</text>
</g>
<!-- 2271468390&#45;&gt;837076458 -->
<g id="edge10" class="edge"><title>2271468390&#45;&gt;837076458</title>
<path fill="none" stroke="black" d="M227,-600.291C227,-591.705 227,-582.777 227,-573.998"/>
<polygon fill="black" stroke="black" points="230.5,-573.789 227,-563.789 223.5,-573.789 230.5,-573.789"/>
</g>
<!-- 3964131620 -->
<g id="node7" class="node"><title>3964131620</title>
<ellipse fill="yellow" stroke="black" cx="227" cy="-357" rx="109.101" ry="56.5685"/>
<text text-anchor="middle" x="227" y="-380.4" font-family="Times Roman,serif" font-size="14.00">ID [3964131620]</text>
<text text-anchor="middle" x="227" y="-362.4" font-family="Times Roman,serif" font-size="14.00">T = (0, 0, 0)</text>
<text text-anchor="middle" x="227" y="-344.4" font-family="Times Roman,serif" font-size="14.00">Updates: 1</text>
<text text-anchor="middle" x="227" y="-326.4" font-family="Times Roman,serif" font-size="14.00">(type = REVOLUTE)</text>
</g>
<!-- 837076458&#45;&gt;3964131620 -->
<g id="edge12" class="edge"><title>837076458&#45;&gt;3964131620</title>
<path fill="none" stroke="black" d="M227,-450.291C227,-441.705 227,-432.777 227,-423.998"/>
<polygon fill="black" stroke="black" points="230.5,-423.789 227,-413.789 223.5,-423.789 230.5,-423.789"/>
</g>
<!-- 2119151154 -->
<g id="node8" class="node"><title>2119151154</title>
<ellipse fill="yellow" stroke="black" cx="227" cy="-207" rx="96.8736" ry="56.5685"/>
<text text-anchor="middle" x="227" y="-230.4" font-family="Times Roman,serif" font-size="14.00">ID [2119151154]</text>
<text text-anchor="middle" x="227" y="-212.4" font-family="Times Roman,serif" font-size="14.00">T = (0, 0, 0)</text>
<text text-anchor="middle" x="227" y="-194.4" font-family="Times Roman,serif" font-size="14.00">Updates: 1</text>
<text text-anchor="middle" x="227" y="-176.4" font-family="Times Roman,serif" font-size="14.00">(type = FIXED)</text>
</g>
<!-- 3964131620&#45;&gt;2119151154 -->
<g id="edge14" class="edge"><title>3964131620&#45;&gt;2119151154</title>
<path fill="none" stroke="black" d="M227,-300.291C227,-291.705 227,-282.777 227,-273.998"/>
<polygon fill="black" stroke="black" points="230.5,-273.789 227,-263.789 223.5,-273.789 230.5,-273.789"/>
</g>
<!-- 2326067296 -->
<g id="node9" class="node"><title>2326067296</title>
<ellipse fill="yellow" stroke="black" cx="109" cy="-57" rx="109.101" ry="56.5685"/>
<text text-anchor="middle" x="109" y="-80.4" font-family="Times Roman,serif" font-size="14.00">ID [2326067296]</text>
<text text-anchor="middle" x="109" y="-62.4" font-family="Times Roman,serif" font-size="14.00">T = (0, 0, 0)</text>
<text text-anchor="middle" x="109" y="-44.4" font-family="Times Roman,serif" font-size="14.00">Updates: 1</text>
<text text-anchor="middle" x="109" y="-26.4" font-family="Times Roman,serif" font-size="14.00">(type = PRISMATIC)</text>
</g>
<!-- 2119151154&#45;&gt;2326067296 -->
<g id="edge16" class="edge"><title>2119151154&#45;&gt;2326067296</title>
<path fill="none" stroke="black" d="M186.391,-155.379C176.821,-143.213 166.533,-130.135 156.683,-117.614"/>
<polygon fill="black" stroke="black" points="159.219,-115.176 150.285,-109.481 153.717,-119.504 159.219,-115.176"/>
</g>
<!-- 1180435583 -->
<g id="node10" class="node"><title>1180435583</title>
<ellipse fill="yellow" stroke="black" cx="345" cy="-57" rx="109.101" ry="56.5685"/>
<text text-anchor="middle" x="345" y="-80.4" font-family="Times Roman,serif" font-size="14.00">ID [1180435583]</text>
<text text-anchor="middle" x="345" y="-62.4" font-family="Times Roman,serif" font-size="14.00">T = (0, 0, 0)</text>
<text text-anchor="middle" x="345" y="-44.4" font-family="Times Roman,serif" font-size="14.00">Updates: 1</text>
<text text-anchor="middle" x="345" y="-26.4" font-family="Times Roman,serif" font-size="14.00">(type = PRISMATIC)</text>
</g>
<!-- 2119151154&#45;&gt;1180435583 -->
<g id="edge18" class="edge"><title>2119151154&#45;&gt;1180435583</title>
<path fill="none" stroke="black" d="M267.609,-155.379C277.179,-143.213 287.467,-130.135 297.317,-117.614"/>
<polygon fill="black" stroke="black" points="300.283,-119.504 303.715,-109.481 294.781,-115.176 300.283,-119.504"/>
</g>
</g>
</svg>
