<?xml version="1.0" encoding="UTF-8" standalone="no"?>
<!DOCTYPE svg PUBLIC "-//W3C//DTD SVG 1.1//EN"
 "http://www.w3.org/Graphics/SVG/1.1/DTD/svg11.dtd">
<!-- Generated by graphviz version 2.26.3 (20100126.1600)
 -->
<!-- Title: _anonymous_0 Pages: 1 -->
<svg width="1410pt" height="1454pt"
 viewBox="0.00 0.00 1410.00 1454.00" xmlns="http://www.w3.org/2000/svg" xmlns:xlink="http://www.w3.org/1999/xlink">
<g id="graph1" class="graph" transform="scale(1 1) rotate(0) translate(4 1450)">
<title>_anonymous_0</title>
<polygon fill="white" stroke="white" points="-4,5 -4,-1450 1407,-1450 1407,5 -4,5"/>
<!-- 1 -->
<g id="node1" class="node"><title>1</title>
<ellipse fill="none" stroke="black" cx="203" cy="-1427" rx="39.0967" ry="18.3848"/>
<text text-anchor="middle" x="203" y="-1423.4" font-family="Times Roman,serif" font-size="14.00">ID [1]</text>
</g>
<!-- 2543166861 -->
<g id="node2" class="node"><title>2543166861</title>
<ellipse fill="none" stroke="black" cx="97" cy="-1302" rx="96.8736" ry="31.1127"/>
<text text-anchor="middle" x="97" y="-1307.4" font-family="Times Roman,serif" font-size="14.00">ID [2543166861]</text>
<text text-anchor="middle" x="97" y="-1289.4" font-family="Times Roman,serif" font-size="14.00">(node = Mass)</text>
</g>
<!-- 1&#45;&gt;2543166861 -->
<g id="edge2" class="edge"><title>1&#45;&gt;2543166861</title>
<path fill="none" stroke="black" d="M188.261,-1409.62C173.031,-1391.66 148.774,-1363.05 129.096,-1339.85"/>
<polygon fill="black" stroke="black" points="131.754,-1337.57 122.617,-1332.21 126.416,-1342.1 131.754,-1337.57"/>
</g>
<!-- 2057313377 -->
<g id="node3" class="node"><title>2057313377</title>
<ellipse fill="yellow" stroke="black" cx="309" cy="-1302" rx="96.8736" ry="69.2965"/>
<text text-anchor="middle" x="309" y="-1334.4" font-family="Times Roman,serif" font-size="14.00">ID [2057313377]</text>
<text text-anchor="middle" x="309" y="-1316.4" font-family="Times Roman,serif" font-size="14.00">T = (0, 0, 0)</text>
<text text-anchor="middle" x="309" y="-1298.4" font-family="Times Roman,serif" font-size="14.00">Updates: 1</text>
<text text-anchor="middle" x="309" y="-1280.4" font-family="Times Roman,serif" font-size="14.00">(node = Joint)</text>
<text text-anchor="middle" x="309" y="-1262.4" font-family="Times Roman,serif" font-size="14.00">(type = FIXED)</text>
</g>
<!-- 1&#45;&gt;2057313377 -->
<g id="edge4" class="edge"><title>1&#45;&gt;2057313377</title>
<path fill="none" stroke="black" d="M217.739,-1409.62C226.846,-1398.88 239.181,-1384.33 251.834,-1369.41"/>
<polygon fill="black" stroke="black" points="254.666,-1371.48 258.464,-1361.59 249.327,-1366.96 254.666,-1371.48"/>
</g>
<!-- 3328074138 -->
<g id="node4" class="node"><title>3328074138</title>
<ellipse fill="none" stroke="black" cx="197" cy="-1126" rx="96.8736" ry="31.1127"/>
<text text-anchor="middle" x="197" y="-1131.4" font-family="Times Roman,serif" font-size="14.00">ID [3328074138]</text>
<text text-anchor="middle" x="197" y="-1113.4" font-family="Times Roman,serif" font-size="14.00">(node = Mass)</text>
</g>
<!-- 2057313377&#45;&gt;3328074138 -->
<g id="edge6" class="edge"><title>2057313377&#45;&gt;3328074138</title>
<path fill="none" stroke="black" d="M268.565,-1238.46C252.925,-1213.88 235.526,-1186.54 221.799,-1164.97"/>
<polygon fill="black" stroke="black" points="224.671,-1162.96 216.349,-1156.41 218.765,-1166.72 224.671,-1162.96"/>
</g>
<!-- 3045890923 -->
<g id="node5" class="node"><title>3045890923</title>
<ellipse fill="yellow" stroke="black" cx="421" cy="-1126" rx="109.101" ry="69.2965"/>
<text text-anchor="middle" x="421" y="-1158.4" font-family="Times Roman,serif" font-size="14.00">ID [3045890923]</text>
<text text-anchor="middle" x="421" y="-1140.4" font-family="Times Roman,serif" font-size="14.00">T = (0, 0, 0)</text>
<text text-anchor="middle" x="421" y="-1122.4" font-family="Times Roman,serif" font-size="14.00">Updates: 1</text>
<text text-anchor="middle" x="421" y="-1104.4" font-family="Times Roman,serif" font-size="14.00">(node = Joint)</text>
<text text-anchor="middle" x="421" y="-1086.4" font-family="Times Roman,serif" font-size="14.00">(type = REVOLUTE)</text>
</g>
<!-- 2057313377&#45;&gt;3045890923 -->
<g id="edge8" class="edge"><title>2057313377&#45;&gt;3045890923</title>
<path fill="none" stroke="black" d="M349.435,-1238.46C357.556,-1225.7 366.151,-1212.19 374.461,-1199.13"/>
<polygon fill="black" stroke="black" points="377.456,-1200.95 379.872,-1190.63 371.55,-1197.19 377.456,-1200.95"/>
</g>
<!-- 3686307144 -->
<g id="node6" class="node"><title>3686307144</title>
<ellipse fill="none" stroke="black" cx="309" cy="-950" rx="96.8736" ry="31.1127"/>
<text text-anchor="middle" x="309" y="-955.4" font-family="Times Roman,serif" font-size="14.00">ID [3686307144]</text>
<text text-anchor="middle" x="309" y="-937.4" font-family="Times Roman,serif" font-size="14.00">(node = Mass)</text>
</g>
<!-- 3045890923&#45;&gt;3686307144 -->
<g id="edge10" class="edge"><title>3045890923&#45;&gt;3686307144</title>
<path fill="none" stroke="black" d="M379.931,-1061.46C364.458,-1037.15 347.343,-1010.25 333.803,-988.975"/>
<polygon fill="black" stroke="black" points="336.745,-987.079 328.423,-980.522 330.839,-990.838 336.745,-987.079"/>
</g>
<!-- 4266991069 -->
<g id="node7" class="node"><title>4266991069</title>
<ellipse fill="yellow" stroke="black" cx="533" cy="-950" rx="109.101" ry="69.2965"/>
<text text-anchor="middle" x="533" y="-982.4" font-family="Times Roman,serif" font-size="14.00">ID [4266991069]</text>
<text text-anchor="middle" x="533" y="-964.4" font-family="Times Roman,serif" font-size="14.00">T = (0, 0, 0)</text>
<text text-anchor="middle" x="533" y="-946.4" font-family="Times Roman,serif" font-size="14.00">Updates: 1</text>
<text text-anchor="middle" x="533" y="-928.4" font-family="Times Roman,serif" font-size="14.00">(node = Joint)</text>
<text text-anchor="middle" x="533" y="-910.4" font-family="Times Roman,serif" font-size="14.00">(type = REVOLUTE)</text>
</g>
<!-- 3045890923&#45;&gt;4266991069 -->
<g id="edge12" class="edge"><title>3045890923&#45;&gt;4266991069</title>
<path fill="none" stroke="black" d="M462.069,-1061.46C469.982,-1049.03 478.324,-1035.92 486.398,-1023.23"/>
<polygon fill="black" stroke="black" points="489.52,-1024.84 491.936,-1014.53 483.615,-1021.09 489.52,-1024.84"/>
</g>
<!-- 436478327 -->
<g id="node8" class="node"><title>436478327</title>
<ellipse fill="none" stroke="black" cx="424" cy="-774" rx="90.0096" ry="31.1127"/>
<text text-anchor="middle" x="424" y="-779.4" font-family="Times Roman,serif" font-size="14.00">ID [436478327]</text>
<text text-anchor="middle" x="424" y="-761.4" font-family="Times Roman,serif" font-size="14.00">(node = Mass)</text>
</g>
<!-- 4266991069&#45;&gt;436478327 -->
<g id="edge14" class="edge"><title>4266991069&#45;&gt;436478327</title>
<path fill="none" stroke="black" d="M492.722,-884.964C477.758,-860.802 461.256,-834.156 448.174,-813.033"/>
<polygon fill="black" stroke="black" points="451.032,-811 442.791,-804.342 445.081,-814.686 451.032,-811"/>
</g>
<!-- 292629182 -->
<g id="node9" class="node"><title>292629182</title>
<ellipse fill="yellow" stroke="black" cx="641" cy="-774" rx="109.101" ry="69.2965"/>
<text text-anchor="middle" x="641" y="-806.4" font-family="Times Roman,serif" font-size="14.00">ID [292629182]</text>
<text text-anchor="middle" x="641" y="-788.4" font-family="Times Roman,serif" font-size="14.00">T = (0, 0, 0)</text>
<text text-anchor="middle" x="641" y="-770.4" font-family="Times Roman,serif" font-size="14.00">Updates: 1</text>
<text text-anchor="middle" x="641" y="-752.4" font-family="Times Roman,serif" font-size="14.00">(node = Joint)</text>
<text text-anchor="middle" x="641" y="-734.4" font-family="Times Roman,serif" font-size="14.00">(type = REVOLUTE)</text>
</g>
<!-- 4266991069&#45;&gt;292629182 -->
<g id="edge16" class="edge"><title>4266991069&#45;&gt;292629182</title>
<path fill="none" stroke="black" d="M572.908,-884.964C580.427,-872.712 588.337,-859.821 595.999,-847.335"/>
<polygon fill="black" stroke="black" points="599.009,-849.122 601.256,-838.769 593.042,-845.461 599.009,-849.122"/>
</g>
<!-- 4122250599 -->
<g id="node10" class="node"><title>4122250599</title>
<ellipse fill="none" stroke="black" cx="529" cy="-598" rx="96.8736" ry="31.1127"/>
<text text-anchor="middle" x="529" y="-603.4" font-family="Times Roman,serif" font-size="14.00">ID [4122250599]</text>
<text text-anchor="middle" x="529" y="-585.4" font-family="Times Roman,serif" font-size="14.00">(node = Mass)</text>
</g>
<!-- 292629182&#45;&gt;4122250599 -->
<g id="edge18" class="edge"><title>292629182&#45;&gt;4122250599</title>
<path fill="none" stroke="black" d="M599.931,-709.463C584.458,-685.148 567.343,-658.254 553.803,-636.975"/>
<polygon fill="black" stroke="black" points="556.745,-635.079 548.423,-628.522 550.839,-638.838 556.745,-635.079"/>
</g>
<!-- 3394507708 -->
<g id="node11" class="node"><title>3394507708</title>
<ellipse fill="yellow" stroke="black" cx="753" cy="-598" rx="109.101" ry="69.2965"/>
<text text-anchor="middle" x="753" y="-630.4" font-family="Times Roman,serif" font-size="14.00">ID [3394507708]</text>
<text text-anchor="middle" x="753" y="-612.4" font-family="Times Roman,serif" font-size="14.00">T = (0, 0, 0)</text>
<text text-anchor="middle" x="753" y="-594.4" font-family="Times Roman,serif" font-size="14.00">Updates: 1</text>
<text text-anchor="middle" x="753" y="-576.4" font-family="Times Roman,serif" font-size="14.00">(node = Joint)</text>
<text text-anchor="middle" x="753" y="-558.4" font-family="Times Roman,serif" font-size="14.00">(type = REVOLUTE)</text>
</g>
<!-- 292629182&#45;&gt;3394507708 -->
<g id="edge20" class="edge"><title>292629182&#45;&gt;3394507708</title>
<path fill="none" stroke="black" d="M682.069,-709.463C689.982,-697.029 698.324,-683.919 706.398,-671.232"/>
<polygon fill="black" stroke="black" points="709.52,-672.844 711.936,-662.529 703.615,-669.086 709.52,-672.844"/>
</g>
<!-- 3958500090 -->
<g id="node12" class="node"><title>3958500090</title>
<ellipse fill="none" stroke="black" cx="641" cy="-422" rx="96.8736" ry="31.1127"/>
<text text-anchor="middle" x="641" y="-427.4" font-family="Times Roman,serif" font-size="14.00">ID [3958500090]</text>
<text text-anchor="middle" x="641" y="-409.4" font-family="Times Roman,serif" font-size="14.00">(node = Mass)</text>
</g>
<!-- 3394507708&#45;&gt;3958500090 -->
<g id="edge22" class="edge"><title>3394507708&#45;&gt;3958500090</title>
<path fill="none" stroke="black" d="M711.931,-533.463C696.458,-509.148 679.343,-482.254 665.803,-460.975"/>
<polygon fill="black" stroke="black" points="668.745,-459.079 660.423,-452.522 662.839,-462.838 668.745,-459.079"/>
</g>
<!-- 3009405320 -->
<g id="node13" class="node"><title>3009405320</title>
<ellipse fill="yellow" stroke="black" cx="865" cy="-422" rx="109.101" ry="69.2965"/>
<text text-anchor="middle" x="865" y="-454.4" font-family="Times Roman,serif" font-size="14.00">ID [3009405320]</text>
<text text-anchor="middle" x="865" y="-436.4" font-family="Times Roman,serif" font-size="14.00">T = (0, 0, 0)</text>
<text text-anchor="middle" x="865" y="-418.4" font-family="Times Roman,serif" font-size="14.00">Updates: 1</text>
<text text-anchor="middle" x="865" y="-400.4" font-family="Times Roman,serif" font-size="14.00">(node = Joint)</text>
<text text-anchor="middle" x="865" y="-382.4" font-family="Times Roman,serif" font-size="14.00">(type = REVOLUTE)</text>
</g>
<!-- 3394507708&#45;&gt;3009405320 -->
<g id="edge24" class="edge"><title>3394507708&#45;&gt;3009405320</title>
<path fill="none" stroke="black" d="M794.069,-533.463C801.982,-521.029 810.324,-507.919 818.398,-495.232"/>
<polygon fill="black" stroke="black" points="821.52,-496.844 823.936,-486.529 815.615,-493.086 821.52,-496.844"/>
</g>
<!-- 4145773645 -->
<g id="node14" class="node"><title>4145773645</title>
<ellipse fill="none" stroke="black" cx="762" cy="-246" rx="96.8736" ry="31.1127"/>
<text text-anchor="middle" x="762" y="-251.4" font-family="Times Roman,serif" font-size="14.00">ID [4145773645]</text>
<text text-anchor="middle" x="762" y="-233.4" font-family="Times Roman,serif" font-size="14.00">(node = Mass)</text>
</g>
<!-- 3009405320&#45;&gt;4145773645 -->
<g id="edge26" class="edge"><title>3009405320&#45;&gt;4145773645</title>
<path fill="none" stroke="black" d="M826.647,-356.464C812.696,-332.626 797.366,-306.432 785.137,-285.536"/>
<polygon fill="black" stroke="black" points="787.998,-283.495 779.927,-276.632 781.957,-287.03 787.998,-283.495"/>
</g>
<!-- 567299204 -->
<g id="node15" class="node"><title>567299204</title>
<ellipse fill="yellow" stroke="black" cx="967" cy="-246" rx="90.0096" ry="69.2965"/>
<text text-anchor="middle" x="967" y="-278.4" font-family="Times Roman,serif" font-size="14.00">ID [567299204]</text>
<text text-anchor="middle" x="967" y="-260.4" font-family="Times Roman,serif" font-size="14.00">T = (0, 0, 0)</text>
<text text-anchor="middle" x="967" y="-242.4" font-family="Times Roman,serif" font-size="14.00">Updates: 1</text>
<text text-anchor="middle" x="967" y="-224.4" font-family="Times Roman,serif" font-size="14.00">(node = Joint)</text>
<text text-anchor="middle" x="967" y="-206.4" font-family="Times Roman,serif" font-size="14.00">(type = FIXED)</text>
</g>
<!-- 3009405320&#45;&gt;567299204 -->
<g id="edge28" class="edge"><title>3009405320&#45;&gt;567299204</title>
<path fill="none" stroke="black" d="M902.981,-356.464C910.206,-343.997 917.805,-330.885 925.143,-318.224"/>
<polygon fill="black" stroke="black" points="928.187,-319.951 930.173,-309.544 922.131,-316.441 928.187,-319.951"/>
</g>
<!-- 4015922378 -->
<g id="node16" class="node"><title>4015922378</title>
<ellipse fill="none" stroke="black" cx="635" cy="-70" rx="96.8736" ry="31.1127"/>
<text text-anchor="middle" x="635" y="-75.4" font-family="Times Roman,serif" font-size="14.00">ID [4015922378]</text>
<text text-anchor="middle" x="635" y="-57.4" font-family="Times Roman,serif" font-size="14.00">(node = Mass)</text>
</g>
<!-- 567299204&#45;&gt;4015922378 -->
<g id="edge30" class="edge"><title>567299204&#45;&gt;4015922378</title>
<path fill="none" stroke="black" d="M903.709,-196.561C892.228,-188.975 880.06,-181.764 868,-176 815.066,-150.701 794.329,-164.453 741,-140 720.327,-130.521 699.109,-117.319 681.139,-104.933"/>
<polygon fill="black" stroke="black" points="682.791,-101.817 672.595,-98.9378 678.77,-107.547 682.791,-101.817"/>
</g>
<!-- 1431709476 -->
<g id="node17" class="node"><title>1431709476</title>
<ellipse fill="yellow" stroke="black" cx="859" cy="-70" rx="109.101" ry="69.2965"/>
<text text-anchor="middle" x="859" y="-102.4" font-family="Times Roman,serif" font-size="14.00">ID [1431709476]</text>
<text text-anchor="middle" x="859" y="-84.4" font-family="Times Roman,serif" font-size="14.00">T = (0, 0, 0)</text>
<text text-anchor="middle" x="859" y="-66.4" font-family="Times Roman,serif" font-size="14.00">Updates: 1</text>
<text text-anchor="middle" x="859" y="-48.4" font-family="Times Roman,serif" font-size="14.00">(node = Joint)</text>
<text text-anchor="middle" x="859" y="-30.4" font-family="Times Roman,serif" font-size="14.00">(type = PRISMATIC)</text>
</g>
<!-- 567299204&#45;&gt;1431709476 -->
<g id="edge32" class="edge"><title>567299204&#45;&gt;1431709476</title>
<path fill="none" stroke="black" d="M928.315,-182.957C920.47,-170.173 912.155,-156.623 904.111,-143.514"/>
<polygon fill="black" stroke="black" points="907.085,-141.668 898.871,-134.975 901.118,-145.329 907.085,-141.668"/>
</g>
<!-- 304785714 -->
<g id="node18" class="node"><title>304785714</title>
<ellipse fill="none" stroke="black" cx="1076" cy="-70" rx="90.0096" ry="31.1127"/>
<text text-anchor="middle" x="1076" y="-75.4" font-family="Times Roman,serif" font-size="14.00">ID [304785714]</text>
<text text-anchor="middle" x="1076" y="-57.4" font-family="Times Roman,serif" font-size="14.00">(node = Mass)</text>
</g>
<!-- 567299204&#45;&gt;304785714 -->
<g id="edge34" class="edge"><title>567299204&#45;&gt;304785714</title>
<path fill="none" stroke="black" d="M1006.04,-182.957C1021.29,-158.337 1038.3,-130.875 1051.73,-109.194"/>
<polygon fill="black" stroke="black" points="1054.77,-110.929 1057.06,-100.585 1048.82,-107.243 1054.77,-110.929"/>
</g>
<!-- 1959569781 -->
<g id="node19" class="node"><title>1959569781</title>
<ellipse fill="yellow" stroke="black" cx="1293" cy="-70" rx="109.101" ry="69.2965"/>
<text text-anchor="middle" x="1293" y="-102.4" font-family="Times Roman,serif" font-size="14.00">ID [1959569781]</text>
<text text-anchor="middle" x="1293" y="-84.4" font-family="Times Roman,serif" font-size="14.00">T = (0, 0, 0)</text>
<text text-anchor="middle" x="1293" y="-66.4" font-family="Times Roman,serif" font-size="14.00">Updates: 1</text>
<text text-anchor="middle" x="1293" y="-48.4" font-family="Times Roman,serif" font-size="14.00">(node = Joint)</text>
<text text-anchor="middle" x="1293" y="-30.4" font-family="Times Roman,serif" font-size="14.00">(type = PRISMATIC)</text>
</g>
<!-- 567299204&#45;&gt;1959569781 -->
<g id="edge36" class="edge"><title>567299204&#45;&gt;1959569781</title>
<path fill="none" stroke="black" d="M1043.19,-208.637C1082.82,-188.837 1131.86,-163.754 1175,-140 1184.76,-134.624 1194.9,-128.874 1204.95,-123.067"/>
<polygon fill="black" stroke="black" points="1206.85,-126.007 1213.74,-117.957 1203.34,-119.955 1206.85,-126.007"/>
</g>
</g>
</svg>
